<svg width="207" height="35" viewBox="0 0 207 35" fill="none" xmlns="http://www.w3.org/2000/svg">
<path d="M45.747 8.616H41.418L41.431 16H39.338V6.9H45.76L45.747 8.616ZM51.4414 14.05H47.2164L46.4104 16H44.2524L48.3084 6.9H50.3884L54.4574 16H52.2474L51.4414 14.05ZM50.7784 12.451L49.3354 8.967L47.8924 12.451H50.7784ZM65.1264 14.284V17.885H63.1764V16H56.7544V17.885H54.8044L54.8174 14.284H55.1814C55.7274 14.2667 56.113 13.868 56.3384 13.088C56.5637 12.308 56.7024 11.1943 56.7544 9.747L56.8584 6.9H63.8524V14.284H65.1264ZM58.6134 9.942C58.57 11.0253 58.479 11.9353 58.3404 12.672C58.2017 13.4 57.9894 13.9373 57.7034 14.284H61.7724V8.616H58.6524L58.6134 9.942ZM74.7991 12.334H73.4731V16H71.4061V12.334H70.0541L68.0131 16H65.5821L68.3121 11.242L65.7511 6.9H67.9741L70.0151 10.579H71.4061V6.9H73.4731V10.579H74.8251L76.8791 6.9H79.1021L76.5541 11.242L79.2711 16H76.8401L74.7991 12.334ZM87.3264 14.31V16H80.2804V6.9H87.1574V8.59H82.3734V10.566H86.5984V12.204H82.3734V14.31H87.3264ZM95.9825 8.616H93.0705V16H90.9905V8.616H88.0915V6.9H95.9825V8.616ZM103.01 14.05H98.7848L97.9788 16H95.8208L99.8768 6.9H101.957L106.026 16H103.816L103.01 14.05ZM102.347 12.451L100.904 8.967L99.4608 12.451H102.347ZM111.172 6.9C111.978 6.9 112.675 7.03433 113.265 7.303C113.863 7.57167 114.322 7.953 114.643 8.447C114.963 8.941 115.124 9.526 115.124 10.202C115.124 10.8693 114.963 11.4543 114.643 11.957C114.322 12.451 113.863 12.8323 113.265 13.101C112.675 13.361 111.978 13.491 111.172 13.491H109.339V16H107.233V6.9H111.172ZM111.055 11.775C111.687 11.775 112.168 11.6407 112.498 11.372C112.827 11.0947 112.992 10.7047 112.992 10.202C112.992 9.69067 112.827 9.30067 112.498 9.032C112.168 8.75467 111.687 8.616 111.055 8.616H109.339V11.775H111.055ZM116.513 6.9H118.606V12.828L122.948 6.9H124.924V16H122.844V10.085L118.502 16H116.513V6.9ZM135.406 6.9L131.532 14.102C131.159 14.7953 130.708 15.3197 130.18 15.675C129.66 16.0303 129.092 16.208 128.477 16.208C128 16.208 127.506 16.104 126.995 15.896L127.502 14.297C127.866 14.4097 128.169 14.466 128.412 14.466C128.672 14.466 128.906 14.4053 129.114 14.284C129.322 14.154 129.512 13.9547 129.686 13.686L129.764 13.582L126.176 6.9H128.425L130.843 11.788L133.339 6.9H135.406ZM144.687 16L144.674 10.553L141.996 15.038H141.06L138.382 10.657V16H136.406V6.9H138.148L141.554 12.555L144.908 6.9H146.65L146.663 16H144.687Z" fill="#0C76D8"/>
<path d="M47.295 24.3V32H46.514V25.84L43.489 31.021H43.104L40.079 25.873V32H39.298V24.3H39.969L43.313 30.009L46.624 24.3H47.295ZM51.6938 26.17C52.4491 26.17 53.0285 26.3607 53.4318 26.742C53.8351 27.116 54.0368 27.6733 54.0368 28.414V32H53.2888V31.098C53.1128 31.3987 52.8525 31.6333 52.5078 31.802C52.1705 31.9707 51.7671 32.055 51.2978 32.055C50.6525 32.055 50.1391 31.901 49.7578 31.593C49.3765 31.285 49.1858 30.878 49.1858 30.372C49.1858 29.8807 49.3618 29.4847 49.7138 29.184C50.0731 28.8833 50.6415 28.733 51.4188 28.733H53.2558V28.381C53.2558 27.8823 53.1165 27.5047 52.8378 27.248C52.5591 26.984 52.1521 26.852 51.6168 26.852C51.2501 26.852 50.8981 26.9143 50.5608 27.039C50.2235 27.1563 49.9338 27.3213 49.6918 27.534L49.3398 26.951C49.6331 26.7017 49.9851 26.511 50.3958 26.379C50.8065 26.2397 51.2391 26.17 51.6938 26.17ZM51.4188 31.439C51.8588 31.439 52.2365 31.34 52.5518 31.142C52.8671 30.9367 53.1018 30.6433 53.2558 30.262V29.316H51.4408C50.4508 29.316 49.9558 29.6607 49.9558 30.35C49.9558 30.6873 50.0841 30.955 50.3408 31.153C50.5975 31.3437 50.9568 31.439 51.4188 31.439ZM60.2079 26.907H56.8969V32H56.1159V26.214H60.2079V26.907ZM63.3276 26.17C64.0829 26.17 64.6623 26.3607 65.0656 26.742C65.4689 27.116 65.6706 27.6733 65.6706 28.414V32H64.9226V31.098C64.7466 31.3987 64.4863 31.6333 64.1416 31.802C63.8043 31.9707 63.4009 32.055 62.9316 32.055C62.2863 32.055 61.7729 31.901 61.3916 31.593C61.0103 31.285 60.8196 30.878 60.8196 30.372C60.8196 29.8807 60.9956 29.4847 61.3476 29.184C61.7069 28.8833 62.2753 28.733 63.0526 28.733H64.8896V28.381C64.8896 27.8823 64.7503 27.5047 64.4716 27.248C64.1929 26.984 63.7859 26.852 63.2506 26.852C62.8839 26.852 62.5319 26.9143 62.1946 27.039C61.8573 27.1563 61.5676 27.3213 61.3256 27.534L60.9736 26.951C61.2669 26.7017 61.6189 26.511 62.0296 26.379C62.4403 26.2397 62.8729 26.17 63.3276 26.17ZM63.0526 31.439C63.4926 31.439 63.8703 31.34 64.1856 31.142C64.5009 30.9367 64.7356 30.6433 64.8896 30.262V29.316H63.0746C62.0846 29.316 61.5896 29.6607 61.5896 30.35C61.5896 30.6873 61.7179 30.955 61.9746 31.153C62.2313 31.3437 62.5906 31.439 63.0526 31.439ZM70.4475 28.986C70.8582 29.0813 71.1735 29.2463 71.3935 29.481C71.6208 29.7157 71.7345 30.0017 71.7345 30.339C71.7345 30.6763 71.6172 30.977 71.3825 31.241C71.1552 31.505 70.8435 31.7103 70.4475 31.857C70.0515 31.9963 69.6152 32.066 69.1385 32.066C68.7205 32.066 68.3098 32.0073 67.9065 31.89C67.5032 31.7653 67.1512 31.5857 66.8505 31.351L67.1145 30.768C67.3785 30.966 67.6865 31.12 68.0385 31.23C68.3905 31.34 68.7462 31.395 69.1055 31.395C69.6408 31.395 70.0772 31.296 70.4145 31.098C70.7592 30.8927 70.9315 30.6177 70.9315 30.273C70.9315 29.965 70.7922 29.7267 70.5135 29.558C70.2348 29.382 69.8535 29.294 69.3695 29.294H68.3795V28.722H69.3255C69.7582 28.722 70.1065 28.6413 70.3705 28.48C70.6345 28.3113 70.7665 28.0877 70.7665 27.809C70.7665 27.501 70.6162 27.259 70.3155 27.083C70.0222 26.907 69.6372 26.819 69.1605 26.819C68.5372 26.819 67.9212 26.9767 67.3125 27.292L67.0925 26.687C67.7818 26.3277 68.4968 26.148 69.2375 26.148C69.6775 26.148 70.0735 26.214 70.4255 26.346C70.7848 26.4707 71.0635 26.6503 71.2615 26.885C71.4668 27.1197 71.5695 27.391 71.5695 27.699C71.5695 27.9923 71.4668 28.2527 71.2615 28.48C71.0635 28.7073 70.7922 28.876 70.4475 28.986ZM73.5075 26.214H74.2885V30.812L78.1495 26.214H78.8425V32H78.0615V27.402L74.2115 32H73.5075V26.214ZM81.0807 26.214H81.8617V28.777H85.5027V26.214H86.2837V32H85.5027V29.448H81.8617V32H81.0807V26.214ZM97.4105 31.318V33.452H96.6735V32H91.3825V26.214H92.1635V31.318H95.6945V26.214H96.4755V31.318H97.4105ZM98.902 26.214H99.683V30.812L103.544 26.214H104.237V32H103.456V27.402L99.606 32H98.902V26.214ZM113.46 29.096C113.46 29.998 113.163 30.7057 112.569 31.219C111.975 31.7323 111.136 32.011 110.05 32.055V34.134H109.291V32.066C108.213 32.022 107.377 31.7433 106.783 31.23C106.197 30.7093 105.903 29.998 105.903 29.096C105.903 28.2013 106.197 27.501 106.783 26.995C107.377 26.489 108.213 26.214 109.291 26.17V23.838H110.05V26.17C111.136 26.2213 111.975 26.5 112.569 27.006C113.163 27.512 113.46 28.2087 113.46 29.096ZM106.673 29.096C106.673 29.7853 106.893 30.3243 107.333 30.713C107.781 31.1017 108.433 31.3217 109.291 31.373V26.863C108.441 26.907 107.792 27.1233 107.344 27.512C106.897 27.8933 106.673 28.4213 106.673 29.096ZM110.05 31.373C110.908 31.329 111.561 31.1127 112.008 30.724C112.463 30.3353 112.69 29.7927 112.69 29.096C112.69 28.414 112.463 27.8823 112.008 27.501C111.561 27.1197 110.908 26.907 110.05 26.863V31.373ZM118.093 26.17C118.636 26.17 119.127 26.2947 119.567 26.544C120.007 26.786 120.352 27.1307 120.601 27.578C120.85 28.0253 120.975 28.535 120.975 29.107C120.975 29.6863 120.85 30.1997 120.601 30.647C120.352 31.0943 120.007 31.4427 119.567 31.692C119.134 31.934 118.643 32.055 118.093 32.055C117.624 32.055 117.198 31.9597 116.817 31.769C116.443 31.571 116.135 31.285 115.893 30.911V34.134H115.112V26.214H115.86V27.358C116.095 26.9767 116.403 26.6833 116.784 26.478C117.173 26.2727 117.609 26.17 118.093 26.17ZM118.038 31.362C118.441 31.362 118.808 31.2703 119.138 31.087C119.468 30.8963 119.725 30.6287 119.908 30.284C120.099 29.9393 120.194 29.547 120.194 29.107C120.194 28.667 120.099 28.2783 119.908 27.941C119.725 27.5963 119.468 27.3287 119.138 27.138C118.808 26.9473 118.441 26.852 118.038 26.852C117.627 26.852 117.257 26.9473 116.927 27.138C116.604 27.3287 116.348 27.5963 116.157 27.941C115.974 28.2783 115.882 28.667 115.882 29.107C115.882 29.547 115.974 29.9393 116.157 30.284C116.348 30.6287 116.604 30.8963 116.927 31.087C117.257 31.2703 117.627 31.362 118.038 31.362ZM125.04 32.055C124.483 32.055 123.98 31.9303 123.533 31.681C123.086 31.4243 122.734 31.0723 122.477 30.625C122.22 30.1777 122.092 29.6717 122.092 29.107C122.092 28.5423 122.22 28.0363 122.477 27.589C122.734 27.1417 123.086 26.7933 123.533 26.544C123.98 26.2947 124.483 26.17 125.04 26.17C125.597 26.17 126.1 26.2947 126.547 26.544C126.994 26.7933 127.343 27.1417 127.592 27.589C127.849 28.0363 127.977 28.5423 127.977 29.107C127.977 29.6717 127.849 30.1777 127.592 30.625C127.343 31.0723 126.994 31.4243 126.547 31.681C126.1 31.9303 125.597 32.055 125.04 32.055ZM125.04 31.362C125.451 31.362 125.817 31.2703 126.14 31.087C126.47 30.8963 126.727 30.6287 126.91 30.284C127.093 29.9393 127.185 29.547 127.185 29.107C127.185 28.667 127.093 28.2747 126.91 27.93C126.727 27.5853 126.47 27.3213 126.14 27.138C125.817 26.9473 125.451 26.852 125.04 26.852C124.629 26.852 124.259 26.9473 123.929 27.138C123.606 27.3213 123.35 27.5853 123.159 27.93C122.976 28.2747 122.884 28.667 122.884 29.107C122.884 29.547 122.976 29.9393 123.159 30.284C123.35 30.6287 123.606 30.8963 123.929 31.087C124.259 31.2703 124.629 31.362 125.04 31.362ZM133.331 29.008C134.116 29.1913 134.508 29.6643 134.508 30.427C134.508 30.933 134.321 31.3217 133.947 31.593C133.573 31.8643 133.016 32 132.275 32H129.646V26.214H132.198C132.858 26.214 133.375 26.3423 133.749 26.599C134.123 26.8557 134.31 27.2223 134.31 27.699C134.31 28.0143 134.222 28.2857 134.046 28.513C133.877 28.733 133.639 28.898 133.331 29.008ZM130.405 28.788H132.143C132.59 28.788 132.931 28.7037 133.166 28.535C133.408 28.3663 133.529 28.1207 133.529 27.798C133.529 27.4753 133.408 27.2333 133.166 27.072C132.931 26.9107 132.59 26.83 132.143 26.83H130.405V28.788ZM132.242 31.384C132.741 31.384 133.115 31.3033 133.364 31.142C133.613 30.9807 133.738 30.7277 133.738 30.383C133.738 30.0383 133.624 29.7853 133.397 29.624C133.17 29.4553 132.81 29.371 132.319 29.371H130.405V31.384H132.242ZM138.77 28.26C139.496 28.2673 140.049 28.4287 140.431 28.744C140.812 29.0593 141.003 29.514 141.003 30.108C141.003 30.724 140.797 31.197 140.387 31.527C139.976 31.857 139.389 32.0183 138.627 32.011L136.339 32V26.214H137.12V28.238L138.77 28.26ZM141.971 26.214H142.752V32H141.971V26.214ZM138.583 31.417C139.118 31.4243 139.521 31.318 139.793 31.098C140.071 30.8707 140.211 30.5407 140.211 30.108C140.211 29.6827 140.075 29.3673 139.804 29.162C139.532 28.9567 139.125 28.8503 138.583 28.843L137.12 28.821V31.395L138.583 31.417ZM148.594 32L146.757 29.58L144.909 32H144.029L146.317 29.03L144.139 26.214H145.019L146.757 28.48L148.495 26.214H149.353L147.175 29.03L149.485 32H148.594ZM156.625 26.17C157.168 26.17 157.659 26.2947 158.099 26.544C158.539 26.786 158.884 27.1307 159.133 27.578C159.383 28.0253 159.507 28.535 159.507 29.107C159.507 29.6863 159.383 30.1997 159.133 30.647C158.884 31.0943 158.539 31.4427 158.099 31.692C157.667 31.934 157.175 32.055 156.625 32.055C156.156 32.055 155.731 31.9597 155.349 31.769C154.975 31.571 154.667 31.285 154.425 30.911V34.134H153.644V26.214H154.392V27.358C154.627 26.9767 154.935 26.6833 155.316 26.478C155.705 26.2727 156.141 26.17 156.625 26.17ZM156.57 31.362C156.974 31.362 157.34 31.2703 157.67 31.087C158 30.8963 158.257 30.6287 158.44 30.284C158.631 29.9393 158.726 29.547 158.726 29.107C158.726 28.667 158.631 28.2783 158.44 27.941C158.257 27.5963 158 27.3287 157.67 27.138C157.34 26.9473 156.974 26.852 156.57 26.852C156.16 26.852 155.789 26.9473 155.459 27.138C155.137 27.3287 154.88 27.5963 154.689 27.941C154.506 28.2783 154.414 28.667 154.414 29.107C154.414 29.547 154.506 29.9393 154.689 30.284C154.88 30.6287 155.137 30.8963 155.459 31.087C155.789 31.2703 156.16 31.362 156.57 31.362ZM166.245 29.349H161.405C161.449 29.9503 161.68 30.438 162.098 30.812C162.516 31.1787 163.044 31.362 163.682 31.362C164.042 31.362 164.372 31.2997 164.672 31.175C164.973 31.043 165.233 30.8523 165.453 30.603L165.893 31.109C165.637 31.417 165.314 31.6517 164.925 31.813C164.544 31.9743 164.122 32.055 163.66 32.055C163.066 32.055 162.538 31.9303 162.076 31.681C161.622 31.4243 161.266 31.0723 161.009 30.625C160.753 30.1777 160.624 29.6717 160.624 29.107C160.624 28.5423 160.745 28.0363 160.987 27.589C161.237 27.1417 161.574 26.7933 161.999 26.544C162.432 26.2947 162.916 26.17 163.451 26.17C163.987 26.17 164.467 26.2947 164.892 26.544C165.318 26.7933 165.651 27.1417 165.893 27.589C166.135 28.029 166.256 28.535 166.256 29.107L166.245 29.349ZM163.451 26.841C162.894 26.841 162.425 27.0207 162.043 27.38C161.669 27.732 161.457 28.194 161.405 28.766H165.508C165.457 28.194 165.241 27.732 164.859 27.38C164.485 27.0207 164.016 26.841 163.451 26.841ZM175.971 26.214V32H167.985V26.214H168.766V31.318H171.604V26.214H172.385V31.318H175.19V26.214H175.971ZM183.261 29.349H178.421C178.465 29.9503 178.696 30.438 179.114 30.812C179.532 31.1787 180.06 31.362 180.698 31.362C181.057 31.362 181.387 31.2997 181.688 31.175C181.989 31.043 182.249 30.8523 182.469 30.603L182.909 31.109C182.652 31.417 182.33 31.6517 181.941 31.813C181.56 31.9743 181.138 32.055 180.676 32.055C180.082 32.055 179.554 31.9303 179.092 31.681C178.637 31.4243 178.282 31.0723 178.025 30.625C177.768 30.1777 177.64 29.6717 177.64 29.107C177.64 28.5423 177.761 28.0363 178.003 27.589C178.252 27.1417 178.59 26.7933 179.015 26.544C179.448 26.2947 179.932 26.17 180.467 26.17C181.002 26.17 181.483 26.2947 181.908 26.544C182.333 26.7933 182.667 27.1417 182.909 27.589C183.151 28.029 183.272 28.535 183.272 29.107L183.261 29.349ZM180.467 26.841C179.91 26.841 179.44 27.0207 179.059 27.38C178.685 27.732 178.472 28.194 178.421 28.766H182.524C182.473 28.194 182.256 27.732 181.875 27.38C181.501 27.0207 181.032 26.841 180.467 26.841ZM185.001 26.214H185.782V28.777H189.423V26.214H190.204V32H189.423V29.448H185.782V32H185.001V26.214ZM192.424 26.214H193.205V30.812L197.066 26.214H197.759V32H196.978V27.402L193.128 32H192.424V26.214ZM199.997 26.214H200.778V30.812L204.639 26.214H205.332V32H204.551V27.402L200.701 32H199.997V26.214ZM202.626 25.378C202.127 25.378 201.731 25.2533 201.438 25.004C201.144 24.7547 200.994 24.4027 200.987 23.948H201.548C201.555 24.234 201.658 24.465 201.856 24.641C202.054 24.8097 202.31 24.894 202.626 24.894C202.941 24.894 203.198 24.8097 203.396 24.641C203.601 24.465 203.707 24.234 203.715 23.948H204.276C204.268 24.4027 204.114 24.7547 203.814 25.004C203.52 25.2533 203.124 25.378 202.626 25.378Z" fill="#2A2D46"/>
<g clip-path="url(#clip0_29_7)">
<path d="M17.3775 8.09796C16.5506 8.09796 15.8767 9.43277 15.8767 11.0872C15.8767 12.7348 16.5506 14.0757 17.3775 14.0757C18.1989 14.0757 18.8714 12.7348 18.8714 11.0872C18.8707 9.43277 18.1982 8.09796 17.3775 8.09796Z" fill="#0C76D8"/>
<path d="M12.3896 3.97248C15.4034 3.97248 16.624 4.20028 16.624 6.45647H18.1248C18.1248 2.47787 14.8098 2.47787 12.3903 2.47787C9.38337 2.47787 8.15596 2.25619 8.15596 0H6.66064C6.66064 3.97248 9.97632 3.97248 12.3896 3.97248Z" fill="#0C76D8"/>
<path d="M20.1416 6.45647C20.2837 6.88623 20.3667 7.35066 20.3667 7.83753V14.33C20.3667 16.1531 19.3045 17.6688 17.9133 17.9931C17.916 18.0142 17.9275 18.0332 17.9275 18.0611V23.2766C17.9275 23.5792 17.6807 23.8274 17.372 23.8274C17.0694 23.8274 16.8219 23.5792 16.8219 23.2766V18.0611C16.8219 18.0332 16.8348 18.0149 16.8368 17.9931C15.4455 17.6688 14.3827 16.1531 14.3827 14.33V7.83753C14.3827 7.35134 14.465 6.88623 14.6078 6.45647C10.489 7.54173 7.4093 11.2769 7.4093 15.726V24.3728C7.40862 29.6678 11.7409 34 17.0347 34H17.714C23.0085 34 27.3401 29.6678 27.3401 24.3728V15.726C27.3401 11.2769 24.2597 7.54173 20.1416 6.45647Z" fill="#0C76D8"/>
</g>
<defs>
<clipPath id="clip0_29_7">
<rect width="34" height="34" fill="white"/>
</clipPath>
</defs>
</svg>
